<?xml version="1.0" encoding="utf-8"?>
<!-- Generator: Adobe Illustrator 22.0.0, SVG Export Plug-In . SVG Version: 6.00 Build 0)  -->
<svg version="1.1"
	 id="svg2" inkscape:version="0.44.1" sodipodi:docbase="/home/cburnett/images/wikipedia" sodipodi:docname="Baseball_diamond_clean.svg" sodipodi:version="0.32" xmlns:cc="http://web.resource.org/cc/" xmlns:dc="http://purl.org/dc/elements/1.1/" xmlns:inkscape="http://www.inkscape.org/namespaces/inkscape" xmlns:rdf="http://www.w3.org/1999/02/22-rdf-syntax-ns#" xmlns:sodipodi="http://sodipodi.sourceforge.net/DTD/sodipodi-0.dtd" xmlns:svg="http://www.w3.org/2000/svg"
	 xmlns="http://www.w3.org/2000/svg" xmlns:xlink="http://www.w3.org/1999/xlink" x="0px" y="0px" viewBox="0 0 650 500"
	 style="enable-background:new 0 0 650 500;" xml:space="preserve">
<style type="text/css">
	.st0{fill:#00A831;}
	.st1{fill:#A48E28;stroke:#85881B;stroke-width:1.0438;stroke-linejoin:bevel;}
	.st2{fill:#00A837;stroke:#85881B;stroke-width:5;}
	.st3{fill:#85881B;}
	.st4{fill:#B56700;stroke:#85881B;stroke-width:2;stroke-linecap:round;stroke-linejoin:round;}
	.st5{fill:none;stroke:#FFFFFF;stroke-width:3.0105;stroke-linecap:square;}
	.st6{fill:none;stroke:#FFFFFF;stroke-width:3;}
	.st7{fill:#FFFFFF;}
	.st8{fill:#85881B;stroke:#FFFFFF;}
	.st9{fill:#00A83B;stroke:#FFFFFF;}
	.st10{fill:none;}
</style>
<sodipodi:namedview  bordercolor="#666666" borderopacity="1.0" gridtolerance="10000" guidetolerance="10" height="500px" id="base" inkscape:current-layer="layer1" inkscape:cx="376.16023" inkscape:cy="318.54367" inkscape:document-units="px" inkscape:grid-points="true" inkscape:object-bbox="true" inkscape:object-nodes="true" inkscape:object-paths="false" inkscape:object-points="true" inkscape:pageopacity="0.0" inkscape:pageshadow="2" inkscape:window-height="962" inkscape:window-width="1272" inkscape:window-x="0" inkscape:window-y="31" inkscape:zoom="1.4142136" objecttolerance="10" pagecolor="#ffffff" showgrid="true" showguides="false" width="650px">
	</sodipodi:namedview>
<g id="layer1" inkscape:groupmode="layer" inkscape:label="Layer 1">
	<path id="path2807" sodipodi:nodetypes="ccccccc" class="st0" d="M150,500H0V0h650v500H508H150z"/>

		<path id="path1874" sodipodi:cx="300" sodipodi:cy="752.36218" sodipodi:end="6.2831853" sodipodi:open="true" sodipodi:rx="95" sodipodi:ry="95" sodipodi:start="3.1415927" sodipodi:type="arc" class="st1" d="
		M139.5,318.4c0-103.8,84.6-187.9,189-187.9s189,84.1,189,187.9"/>
	<path id="path2795" class="st0" d="M328.5,439.5l210-210v210H328.5z"/>
	<path id="path2793" class="st0" d="M328.5,439.5l-204-204l-1,204H328.5z"/>

		<rect id="rect2765" x="244.3" y="235.3" transform="matrix(0.7071 -0.7071 0.7071 0.7071 -129.7206 325.8179)" class="st2" width="168.3" height="168.3"/>
	<path id="path2816" sodipodi:cx="328" sodipodi:cy="430" sodipodi:rx="43" sodipodi:ry="43" sodipodi:type="arc" class="st3" d="
		M371,430c0,23.7-19.3,43-43,43s-43-19.3-43-43s19.3-43,43-43S371,406.3,371,430z"/>

		<path id="path1876" sodipodi:cx="300" sodipodi:cy="752.36218" sodipodi:rx="18" sodipodi:ry="18" sodipodi:type="arc" class="st4" d="
		M346.5,319.5c0,9.9-8.1,18-18,18s-18-8.1-18-18l0,0c0-9.9,8.1-18,18-18S346.5,309.5,346.5,319.5z"/>
	<path id="path2789" class="st5" d="M363,405c287.4-287.4,287.4-287.4,287.4-287.4"/>
	<path id="path2791" class="st6" d="M293.8,405C-2.1,109.1-2.1,109.1-2.1,109.1"/>

		<rect id="rect2799" x="208.6" y="310.6" transform="matrix(0.7071 -0.7071 0.7071 0.7071 -160.6711 243.5795)" class="st7" width="10.2" height="10.2"/>

		<rect id="rect2801" x="438.1" y="310.6" transform="matrix(0.7071 -0.7071 0.7071 0.7071 -93.4598 405.866)" class="st7" width="10.2" height="10.2"/>

		<rect id="rect2803" x="323.6" y="195.6" transform="matrix(0.7071 -0.7071 0.7071 0.7071 -45.6722 291.2145)" class="st7" width="10.2" height="10.2"/>
	<rect id="rect2805" x="321.5" y="317.5" class="st7" width="14" height="4"/>
	<path id="rect2809" sodipodi:nodetypes="cccccc" class="st7" d="M320,423h15v7.7l-7.3,7.3l-7.7-8.2V423z"/>
	<rect id="rect2812" x="340" y="410" class="st8" width="15" height="35"/>
	<rect id="rect2814" x="300" y="410" class="st8" width="15" height="35"/>
	<rect id="rect2820" x="319.9" y="442.5" class="st8" width="15.2" height="25"/>

		<rect id="rect3044" x="185.4" y="325.1" transform="matrix(0.7071 -0.7071 0.7071 0.7071 -182.9528 233.4898)" class="st9" width="10" height="25"/>

		<rect id="rect3050" x="454.6" y="332.9" transform="matrix(0.7071 -0.7071 0.7071 0.7071 -102.1233 429.2758)" class="st9" width="25" height="10"/>

		<path id="path3068" sodipodi:cx="222.5" sodipodi:cy="457.5" sodipodi:rx="12.5" sodipodi:ry="12.5" sodipodi:type="arc" class="st9" d="
		M235,457.5c0,6.9-5.6,12.5-12.5,12.5s-12.5-5.6-12.5-12.5s5.6-12.5,12.5-12.5S235,450.6,235,457.5z"/>

		<path id="path3074" sodipodi:cx="222.5" sodipodi:cy="457.5" sodipodi:rx="12.5" sodipodi:ry="12.5" sodipodi:type="arc" class="st9" d="
		M444.5,458c0,6.9-5.6,12.5-12.5,12.5s-12.5-5.6-12.5-12.5s5.6-12.5,12.5-12.5S444.5,451.1,444.5,458z"/>
	<path id="path3120" sodipodi:nodetypes="ccsscccccccssc" class="st7" d="M295,405c0.2-2.3-1.8-1-2.7-1.5
		c-11.7,15.7-11.9,36.2-0.7,52.2c14.2,20.1,42,24.9,62,10.7s24.9-42,10.7-62L361,405c1.7,2.4,0,0,1.7,2.4l-68.8-0.8L295,405z
		 M293.9,406.5l68.8,0.8c12.1,18.6,7.6,43.6-10.7,56.5c-18.7,13.2-44.6,8.8-57.8-10C283.8,439.4,283.8,421.1,293.9,406.5z"/>
</g>
<rect x="508.2" y="77" class="st10" id="right" width="18.5" height="18.5"/>
<rect x="319.4" y="77" class="st10" id="center" width="18.5" height="18.5"/>
<rect x="319.4" y="421.2" class="st10" id="home" width="18.5" height="18.5"/>
<rect x="130.2" y="77" class="st10" id="left" width="18.5" height="18.5"/>
<rect x="240" y="226.2" class="st10" id="shortstop" width="18.5" height="18.5"/>
</svg>
